# Blender 4.2.3 LTS
# www.blender.org
mtllib 无标题.mtl
o humanoid_quad
v 3.250000 -2.479999 14.000000
v 3.250000 -2.479999 9.010000
v 3.250000 2.480001 9.010000
v 3.250000 2.480001 14.000000
v 0.773000 -2.479999 14.000000
v 0.773000 -2.479999 9.010000
v 0.773000 2.480001 14.000000
v 0.773000 2.480001 9.010000
v 3.470000 -1.289999 17.400000
v 3.470000 -1.289999 15.000000
v 3.470000 1.190001 15.000000
v 3.470000 1.190001 17.400000
v 0.601000 -1.289999 17.400000
v 0.601000 -1.289999 15.000000
v 0.601000 1.190001 17.400000
v 0.601000 1.190001 15.000000
v 3.150000 -2.469999 8.010000
v 3.150000 -2.470000 3.050000
v 3.150000 -0.486000 3.050000
v 3.150000 -0.485999 8.010000
v 0.892000 -2.469999 8.010000
v 0.892000 -2.470000 3.050000
v 0.892000 -0.485999 8.010000
v 0.892000 -0.486000 3.050000
v 3.230000 -3.959999 14.000000
v 3.230000 -3.959999 9.010000
v 3.230000 -2.479999 9.010000
v 3.230000 -2.479999 14.000000
v 0.747000 -3.959999 14.000000
v 0.747000 -3.959999 9.010000
v 0.747000 -2.479999 14.000000
v 0.747000 -2.479999 9.010000
v 3.270000 2.460001 14.000000
v 3.270000 2.460001 9.010000
v 3.270000 3.950001 9.010000
v 3.270000 3.950001 14.000000
v 0.795000 2.460001 14.000000
v 0.795000 2.460001 9.010000
v 0.795000 3.950001 14.000000
v 0.795000 3.950001 9.010000
v 2.490000 -0.497999 15.000000
v 2.490000 -0.497999 14.000000
v 2.490000 0.493001 14.000000
v 2.490000 0.493001 15.000000
v 1.500000 -0.497999 15.000000
v 1.500000 -0.497999 14.000000
v 1.500000 0.493001 15.000000
v 1.500000 0.493001 14.000000
v 3.250000 -2.499999 9.010000
v 3.250000 -2.499999 8.010000
v 3.250000 2.450001 8.010000
v 3.250000 2.450001 9.010000
v 0.771000 -2.499999 9.010000
v 0.771000 -2.499999 8.010000
v 0.771000 2.450001 9.010000
v 0.771000 2.450001 8.010000
v 3.270000 0.465001 8.010000
v 3.270000 0.465000 3.050000
v 3.270000 2.450000 3.050000
v 3.270000 2.450001 8.010000
v 0.795000 0.465001 8.010000
v 0.795000 0.465000 3.050000
v 0.795000 2.450001 8.010000
v 0.795000 2.450000 3.050000
vn 1.0000 -0.0000 -0.0000
vn -0.0000 -1.0000 -0.0000
vn -1.0000 -0.0000 -0.0000
vn -0.0000 1.0000 -0.0000
vn -0.0000 -0.0000 1.0000
vn -0.0000 -0.0000 -1.0000
s 0
f 2//1 4//1 1//1
f 6//2 1//2 5//2
f 8//3 5//3 7//3
f 3//4 7//4 4//4
f 5//5 4//5 7//5
f 6//6 3//6 2//6
f 10//1 12//1 9//1
f 14//2 9//2 13//2
f 16//3 13//3 15//3
f 11//4 15//4 12//4
f 13//5 12//5 15//5
f 14//6 11//6 10//6
f 18//1 20//1 17//1
f 22//2 17//2 21//2
f 24//3 21//3 23//3
f 19//4 23//4 20//4
f 21//5 20//5 23//5
f 22//6 19//6 18//6
f 26//1 28//1 25//1
f 30//2 25//2 29//2
f 32//3 29//3 31//3
f 27//4 31//4 28//4
f 29//5 28//5 31//5
f 30//6 27//6 26//6
f 34//1 36//1 33//1
f 38//2 33//2 37//2
f 40//3 37//3 39//3
f 35//4 39//4 36//4
f 37//5 36//5 39//5
f 38//6 35//6 34//6
f 42//1 44//1 41//1
f 46//2 41//2 45//2
f 48//3 45//3 47//3
f 43//4 47//4 44//4
f 45//5 44//5 47//5
f 46//6 43//6 42//6
f 50//1 52//1 49//1
f 54//2 49//2 53//2
f 56//3 53//3 55//3
f 51//4 55//4 52//4
f 53//5 52//5 55//5
f 54//6 51//6 50//6
f 58//1 60//1 57//1
f 62//2 57//2 61//2
f 64//3 61//3 63//3
f 59//4 63//4 60//4
f 61//5 60//5 63//5
f 62//6 59//6 58//6
f 2//1 3//1 4//1
f 6//2 2//2 1//2
f 8//3 6//3 5//3
f 3//4 8//4 7//4
f 5//5 1//5 4//5
f 6//6 8//6 3//6
f 10//1 11//1 12//1
f 14//2 10//2 9//2
f 16//3 14//3 13//3
f 11//4 16//4 15//4
f 13//5 9//5 12//5
f 14//6 16//6 11//6
f 18//1 19//1 20//1
f 22//2 18//2 17//2
f 24//3 22//3 21//3
f 19//4 24//4 23//4
f 21//5 17//5 20//5
f 22//6 24//6 19//6
f 26//1 27//1 28//1
f 30//2 26//2 25//2
f 32//3 30//3 29//3
f 27//4 32//4 31//4
f 29//5 25//5 28//5
f 30//6 32//6 27//6
f 34//1 35//1 36//1
f 38//2 34//2 33//2
f 40//3 38//3 37//3
f 35//4 40//4 39//4
f 37//5 33//5 36//5
f 38//6 40//6 35//6
f 42//1 43//1 44//1
f 46//2 42//2 41//2
f 48//3 46//3 45//3
f 43//4 48//4 47//4
f 45//5 41//5 44//5
f 46//6 48//6 43//6
f 50//1 51//1 52//1
f 54//2 50//2 49//2
f 56//3 54//3 53//3
f 51//4 56//4 55//4
f 53//5 49//5 52//5
f 54//6 56//6 51//6
f 58//1 59//1 60//1
f 62//2 58//2 57//2
f 64//3 62//3 61//3
f 59//4 64//4 63//4
f 61//5 57//5 60//5
f 62//6 64//6 59//6
